 <!DOCTYPE svg PUBLIC "-//W3C//DTD SVG 1.1//EN" "http://www.w3.org/Graphics/SVG/1.1/DTD/svg11.dtd">
<svg xmlns="http://www.w3.org/2000/svg" id="a" viewBox="0 0 865.76 682.89">
  <defs>
<style xmlns="http://www.w3.org/1999/xhtml">*, ::after, ::before { box-sizing: border-box; }
img, svg { vertical-align: middle; }
</style>
<style xmlns="http://www.w3.org/1999/xhtml">*, body, html { -webkit-font-smoothing: antialiased; }
img, svg { max-width: 100%; }
</style>
</defs>
<g id="b" opacity=".8">
    <g opacity=".3">
      <path d="M761.32,497.1h-204.27c-.28,0-.5-.22-.5-.5V126.62c0-55.17,44.88-100.05,100.05-100.05,58,0,105.18,47.18,105.18,105.18V496.39c.03,.06,.04,.13,.04,.21,0,.28-.22,.5-.5,.5Zm-203.77-1h203.23V131.75c0-57.44-46.73-104.18-104.18-104.18s-99.05,44.43-99.05,99.05V496.1Z" fill="#2f2e41" data-secondary="true"/>
      <path d="M580.11,496.06c-.28,0-.5-.22-.5-.5V132.57c0-43.85,35.68-79.55,79.53-79.58,43.88,0,79.58,35.7,79.58,79.58V495.5c0,.28-.22,.5-.5,.5s-.5-.22-.5-.5V132.57c0-43.33-35.25-78.58-78.58-78.58-43.3,.02-78.53,35.27-78.53,78.58V495.56c0,.28-.22,.5-.5,.5Z" fill="#2f2e41" data-secondary="true"/>
      <path d="M659.19,496.55c-.28,0-.5-.22-.5-.5V27.07c0-.28,.22-.5,.5-.5s.5,.22,.5,.5V496.05c0,.28-.22,.5-.5,.5Z" fill="#2f2e41" data-secondary="true"/>
      <path d="M760.22,117.91h-201.81c-.28,0-.5-.22-.5-.5s.22-.5,.5-.5h201.81c.28,0,.5,.22,.5,.5s-.22,.5-.5,.5Z" fill="#2f2e41" data-secondary="true"/>
      <path d="M760.22,181.61h-201.81c-.28,0-.5-.22-.5-.5s.22-.5,.5-.5h201.81c.28,0,.5,.22,.5,.5s-.22,.5-.5,.5Z" fill="#2f2e41" data-secondary="true"/>
      <path d="M760.22,245.31h-201.81c-.28,0-.5-.22-.5-.5s.22-.5,.5-.5h201.81c.28,0,.5,.22,.5,.5s-.22,.5-.5,.5Z" fill="#2f2e41" data-secondary="true"/>
      <path d="M760.22,309.02h-201.81c-.28,0-.5-.22-.5-.5s.22-.5,.5-.5h201.81c.28,0,.5,.22,.5,.5s-.22,.5-.5,.5Z" fill="#2f2e41" data-secondary="true"/>
      <path d="M760.22,372.72h-201.81c-.28,0-.5-.22-.5-.5s.22-.5,.5-.5h201.81c.28,0,.5,.22,.5,.5s-.22,.5-.5,.5Z" fill="#2f2e41" data-secondary="true"/>
      <path d="M760.22,436.42h-201.81c-.28,0-.5-.22-.5-.5s.22-.5,.5-.5h201.81c.28,0,.5,.22,.5,.5s-.22,.5-.5,.5Z" fill="#2f2e41" data-secondary="true"/>
      <path d="M714.95,76.12c-.14,0-.27-.06-.37-.16-.19-.2-.17-.52,.03-.71l18.29-16.67c.2-.19,.52-.17,.71,.03,.19,.2,.17,.52-.03,.71l-18.29,16.67c-.1,.09-.22,.13-.34,.13Z" fill="#2f2e41" data-secondary="true"/>
      <path d="M604.2,76.12c-.12,0-.24-.04-.34-.13l-18.31-16.67c-.2-.19-.22-.5-.03-.71,.19-.2,.5-.22,.71-.03l18.31,16.67c.2,.19,.22,.5,.03,.71-.1,.11-.23,.16-.37,.16Z" fill="#2f2e41" data-secondary="true"/>
    </g>
  </g>
  <g id="c" opacity=".5">
    <path d="M437.81,100.53h-19.48c-2.17,0-4.16-1.1-5.33-2.94-5.58-8.83-14.74-24.7-13.31-31.82,2.02-9.9,28.25-27.07,29.37-27.79,.17-.11,.39-.11,.56,0,1.02,.72,25.06,17.62,26.86,26.96,1.5,7.5-8.81,25.3-13.32,32.6-1.16,1.87-3.16,2.98-5.36,2.99Zm-8.48-61.53c-2.89,1.91-26.82,18.01-28.65,26.97-1.42,7.03,8.74,24.08,13.17,31.09,.98,1.55,2.65,2.47,4.48,2.47h19.48c1.85,0,3.53-.94,4.51-2.51,4.44-7.2,14.62-24.72,13.19-31.88-1.63-8.43-23.45-24.19-26.18-26.13Z" fill="#2f2e41" data-secondary="true"/>
    <path d="M411.41,107.84c-1.01,0-2.01-.24-2.94-.73-7.44-3.88-25-13.67-27.43-20.89-3.21-9.58,10.93-37.58,11.53-38.77,.09-.18,.29-.29,.49-.27,1.24,.11,30.52,2.73,36.75,9.93,5.05,5.83,5.01,26.34,4.76,34.89-.07,2.17-1.28,4.18-3.16,5.25l-16.85,9.75c-.98,.56-2.06,.84-3.15,.84Zm-18.1-59.63c-1.54,3.1-14.23,29.01-11.32,37.69,2.38,7.07,21.23,17.34,26.95,20.32,1.62,.85,3.53,.82,5.12-.09l16.85-9.75s0,0,0,0c1.58-.9,2.6-2.59,2.66-4.41,.25-8.43,.31-28.64-4.51-34.2-5.62-6.5-32.42-9.24-35.75-9.56Z" fill="#2f2e41" data-secondary="true"/>
    <path d="M401.26,117.89c-9.46,0-21.88-.78-26.18-4.56-7.5-6.69-9.32-38.01-9.4-39.34-.01-.2,.1-.39,.29-.48,1.13-.53,27.79-12.89,36.78-9.77,7.32,2.54,17.52,20.32,21.57,27.84,1.01,1.91,.98,4.17-.1,6.04,0,0,0,0,0,0l-9.73,16.86c-1.07,1.9-3.01,3.11-5.19,3.22-2.09,.09-4.9,.17-8.03,.17Zm-34.56-43.62c.22,3.46,2.25,32.25,9.04,38.3,5.62,4.93,27.07,4.41,33.51,4.14,1.83-.09,3.47-1.11,4.37-2.72l9.74-16.87c.9-1.58,.93-3.47,.08-5.07-3.11-5.79-13.83-24.87-21.01-27.37-8.11-2.82-32.67,8.2-35.72,9.59Zm57.09,23.11h0Z" fill="#2f2e41" data-secondary="true"/>
    <path d="M385.06,139.8c-.58,0-1.13-.05-1.63-.15-9.9-2.01-27.07-28.25-27.79-29.37-.11-.17-.11-.39,0-.56,.72-1.02,17.62-25.06,26.96-26.85,7.5-1.5,25.3,8.81,32.6,13.32,1.87,1.16,2.98,3.16,2.99,5.36h0v19.47c0,2.17-1.1,4.16-2.94,5.33-6.61,4.2-22.11,13.46-30.2,13.46Zm-28.39-29.78c1.91,2.89,18.01,26.83,26.97,28.65,7.27,1.48,25.63-9.71,31.09-13.17,1.55-.98,2.47-2.65,2.47-4.48v-19.46c0-1.85-.94-3.53-2.51-4.51-7.2-4.44-24.73-14.62-31.88-13.19-8.43,1.61-24.19,23.44-26.13,26.16Z" fill="#2f2e41" data-secondary="true"/>
    <path d="M400.44,158.86c-11.55,0-34.25-11.46-35.32-12-.18-.09-.29-.29-.27-.49,.11-1.24,2.73-30.51,9.92-36.74,5.83-5.05,26.35-5.01,34.9-4.76,2.18,.05,4.14,1.21,5.24,3.08,0,0,0,0,0,0l9.75,16.92c1.08,1.88,1.12,4.15,.11,6.07-3.87,7.44-13.65,25.01-20.89,27.43-.97,.33-2.14,.47-3.45,.47Zm-34.56-12.74c3.1,1.55,29.01,14.23,37.69,11.32,7.09-2.37,17.35-21.23,20.32-26.95,.85-1.62,.82-3.53-.09-5.11l-9.75-16.92c-.93-1.58-2.58-2.55-4.41-2.59-8.44-.25-28.65-.31-34.22,4.51-6.49,5.62-9.23,32.4-9.54,35.73Z" fill="#2f2e41" data-secondary="true"/>
    <path d="M391.63,173.69c-.19,0-.37-.11-.45-.29-.53-1.13-12.89-27.79-9.77-36.79,2.52-7.3,20.31-17.5,27.84-21.55,1.91-1.01,4.17-.98,6.04,.1,0,0,0,0,0,0l16.86,9.73c1.91,1.06,3.11,3.01,3.22,5.19,.36,8.37,.65,28.46-4.39,34.22-6.69,7.57-38.01,9.33-39.34,9.4,0,0-.02,0-.03,0Zm20.56-58.37c-.84,0-1.69,.2-2.46,.62-7.43,3.99-24.97,14.03-27.37,21-2.82,8.13,8.2,32.69,9.59,35.74,3.46-.21,32.25-2.18,38.3-9.04,4.94-5.63,4.42-27.07,4.14-33.51-.09-1.84-1.11-3.47-2.72-4.37l-16.87-9.73c-.81-.46-1.71-.7-2.61-.7Z" fill="#2f2e41" data-secondary="true"/>
    <path d="M427.68,183.81c-.1,0-.2-.03-.29-.09-1.02-.72-25.06-17.62-26.85-26.97-1.51-7.53,8.81-25.3,13.32-32.58,1.16-1.87,3.16-2.98,5.36-2.99h19.46c2.17,0,4.16,1.1,5.33,2.94,4.51,7.08,14.82,24.36,13.31,31.81-2.01,9.91-28.25,27.08-29.37,27.81-.08,.05-.18,.08-.27,.08Zm-8.45-61.63c-1.85,0-3.53,.94-4.51,2.51-4.44,7.19-14.63,24.68-13.19,31.87,1.61,8.44,23.44,24.21,26.16,26.15,2.89-1.91,26.83-18.01,28.65-26.98,1.49-7.29-9.71-25.63-13.17-31.07-.98-1.55-2.65-2.47-4.48-2.47h-19.46Z" fill="#2f2e41" data-secondary="true"/>
    <path d="M464.02,174.52s-.03,0-.04,0c-1.24-.11-30.51-2.75-36.74-9.93-5.05-5.82-5.01-26.34-4.76-34.89,.07-2.2,1.25-4.16,3.15-5.26h0s16.86-9.73,16.86-9.73c1.88-1.09,4.15-1.13,6.07-.13,7.45,3.89,25.03,13.71,27.43,20.91,3.21,9.58-10.93,37.58-11.53,38.76-.09,.17-.26,.27-.45,.27Zm-37.89-49.22c-1.6,.93-2.59,2.58-2.65,4.43-.25,8.43-.31,28.65,4.51,34.2,5.62,6.49,32.4,9.24,35.73,9.56,1.54-3.1,14.23-29.01,11.32-37.69-2.35-7.05-21.22-17.35-26.95-20.34-1.62-.85-3.53-.81-5.1,.11l-16.86,9.73Z" fill="#2f2e41" data-secondary="true"/>
    <path d="M457.87,158.53c-1.38,0-2.6-.15-3.6-.5-7.26-2.52-17.5-20.31-21.57-27.84-1.03-1.94-.99-4.22,.11-6.12l9.75-16.88c1.09-1.88,3.03-3.05,5.2-3.13,8.37-.36,28.47-.66,34.21,4.37,7.57,6.71,9.33,38.01,9.4,39.34,.01,.2-.1,.39-.29,.48-1,.47-22.18,10.28-33.2,10.28Zm-2.27-53.64c-3.28,0-6.08,.09-7.81,.17-1.82,.07-3.46,1.06-4.37,2.63l-9.75,16.88s0,0,0,0c-.93,1.59-.96,3.52-.1,5.15,4.01,7.43,14.08,24.96,21.01,27.37,8.13,2.8,32.71-8.21,35.75-9.6-.21-3.46-2.18-32.23-9.04-38.3-4.11-3.6-16.72-4.29-25.7-4.29Zm-22.36,19.43h0Z" fill="#2f2e41" data-secondary="true"/>
    <path d="M472.78,138.97c-8.2,0-24.15-9.26-30.96-13.47-1.86-1.17-2.97-3.17-2.97-5.36h0v-19.48c0-2.17,1.1-4.16,2.94-5.31,7.08-4.51,24.36-14.82,31.81-13.31,9.91,2.01,27.08,28.24,27.81,29.35,.11,.17,.11,.39,0,.56-.72,1.02-17.62,25.06-26.97,26.86-.5,.1-1.05,.15-1.64,.15Zm-32.94-18.83c0,1.84,.94,3.53,2.5,4.51,7.2,4.44,24.72,14.62,31.88,13.19,8.44-1.63,24.21-23.45,26.15-26.18-1.91-2.89-18.01-26.82-26.98-28.64-7.29-1.49-25.63,9.7-31.07,13.17-1.54,.97-2.47,2.64-2.47,4.47v19.48Z" fill="#2f2e41" data-secondary="true"/>
    <path d="M453.29,116.99c-2.28,0-4.31-.04-5.92-.09-2.2-.07-4.17-1.26-5.26-3.16l-9.73-16.86c-1.08-1.88-1.13-4.16-.13-6.08,3.9-7.45,13.73-25.02,20.91-27.43,9.58-3.21,37.58,10.94,38.76,11.54,.18,.09,.29,.29,.27,.49-.11,1.24-2.74,30.51-9.93,36.75-4.74,4.1-19.14,4.85-28.97,4.85Zm3.34-53.11c-1.2,0-2.27,.13-3.15,.43-6.83,2.3-16.5,19.61-20.34,26.95-.84,1.62-.8,3.54,.11,5.12l9.73,16.86s0,0,0,0c.92,1.6,2.58,2.6,4.43,2.66,6.57,.19,28.48,.44,34.2-4.51,6.49-5.63,9.24-32.42,9.56-35.75-2.79-1.39-23.96-11.77-34.54-11.77Z" fill="#2f2e41" data-secondary="true"/>
    <path d="M444.89,107.4c-1.09,0-2.18-.28-3.15-.84l-16.88-9.73c-1.87-1.09-3.04-3.03-3.13-5.2-.36-8.37-.65-28.47,4.37-34.21,6.71-7.5,38.01-9.32,39.34-9.4,.2-.02,.39,.1,.48,.29,.53,1.13,12.89,27.79,9.78,36.78-2.54,7.32-20.32,17.52-27.84,21.57-.92,.5-1.95,.75-2.97,.75Zm20.27-58.36c-3.46,.22-32.23,2.25-38.3,9.04-4.92,5.62-4.4,27.07-4.12,33.51,.07,1.82,1.06,3.46,2.63,4.37l16.88,9.73s0,0,0,0c1.57,.92,3.54,.95,5.14,.08,5.79-3.11,24.88-13.83,27.37-21.02,2.8-8.11-8.21-32.67-9.6-35.72Z" fill="#2f2e41" data-secondary="true"/>
    <path d="M428.51,201.98c-50.25,0-91.14-40.88-91.14-91.14s40.88-91.14,91.14-91.14,91.14,40.88,91.14,91.14-40.88,91.14-91.14,91.14Zm0-181.27c-49.7,0-90.14,40.43-90.14,90.14s40.43,90.14,90.14,90.14,90.14-40.43,90.14-90.14-40.44-90.14-90.14-90.14Z" fill="#2f2e41" data-secondary="true"/>
    <path d="M429.34,38.9c-.28,0-.5-.22-.5-.5V20.21c0-.28,.22-.5,.5-.5s.5,.22,.5,.5v18.19c0,.28-.22,.5-.5,.5Z" fill="#2f2e41" data-secondary="true"/>
    <path d="M427.68,201.98c-.28,0-.5-.22-.5-.5v-18.17c0-.28,.22-.5,.5-.5s.5,.22,.5,.5v18.17c0,.28-.22,.5-.5,.5Z" fill="#2f2e41" data-secondary="true"/>
    <path d="M519.15,112.18h-18.17c-.28,0-.5-.22-.5-.5s.22-.5,.5-.5h18.17c.28,0,.5,.22,.5,.5s-.22,.5-.5,.5Z" fill="#2f2e41" data-secondary="true"/>
    <path d="M356.06,110.51h-18.19c-.28,0-.5-.22-.5-.5s.22-.5,.5-.5h18.19c.28,0,.5,.22,.5,.5s-.22,.5-.5,.5Z" fill="#2f2e41" data-secondary="true"/>
    <path d="M383.58,66.58c-.13,0-.26-.05-.35-.15l-18.44-18.44c-.2-.2-.2-.51,0-.71s.51-.2,.71,0l18.44,18.44c.2,.2,.2,.51,0,.71-.1,.1-.23,.15-.35,.15Z" fill="#2f2e41" data-secondary="true"/>
    <path d="M492.52,176.65c-.13,0-.26-.05-.35-.15l-20.1-20.12c-.2-.2-.2-.51,0-.71,.2-.2,.51-.2,.71,0l20.1,20.12c.2,.2,.2,.51,0,.71-.1,.1-.23,.15-.35,.15Z" fill="#2f2e41" data-secondary="true"/>
    <path d="M472.97,68.8c-.13,0-.26-.05-.35-.15-.2-.2-.2-.51,0-.71l20.12-20.1c.2-.2,.51-.2,.71,0s.2,.51,0,.71l-20.12,20.1c-.1,.1-.23,.15-.35,.15Z" fill="#2f2e41" data-secondary="true"/>
    <path d="M364.01,174.97c-.13,0-.26-.05-.35-.15-.2-.2-.2-.51,0-.71l19.57-19.55c.2-.2,.51-.2,.71,0s.2,.51,0,.71l-19.57,19.55c-.1,.1-.23,.15-.35,.15Z" fill="#2f2e41" data-secondary="true"/>
  </g>
  <g id="d" opacity=".8">
    <g opacity=".3">
      <path d="M298.43,497.1H94.15c-.28,0-.5-.22-.5-.5V126.62c0-55.17,44.88-100.05,100.05-100.05,57.99,0,105.18,47.18,105.18,105.18V496.39c.03,.06,.04,.13,.04,.21,0,.28-.22,.5-.5,.5Zm-203.77-1h203.23V131.75c0-57.44-46.73-104.18-104.18-104.18s-99.05,44.43-99.05,99.05V496.1Z" fill="#2f2e41" data-secondary="true"/>
      <path d="M117.14,496.06c-.28,0-.5-.22-.5-.5V132.44c.03-43.85,35.73-79.51,79.58-79.51h.06c43.94,.03,79.61,35.76,79.58,79.64V495.5c0,.28-.22,.5-.5,.5s-.5-.22-.5-.5V132.57c.03-43.33-35.19-78.6-78.52-78.64h-.06c-43.36,0-78.6,35.21-78.63,78.52V495.56c0,.28-.22,.5-.5,.5Z" fill="#2f2e41" data-secondary="true"/>
      <path d="M196.28,496.55c-.28,0-.5-.22-.5-.5V27.07c0-.28,.22-.5,.5-.5s.5,.22,.5,.5V496.05c0,.28-.22,.5-.5,.5Z" fill="#2f2e41" data-secondary="true"/>
      <path d="M297.33,117.91H95.51c-.28,0-.5-.22-.5-.5s.22-.5,.5-.5h201.82c.28,0,.5,.22,.5,.5s-.22,.5-.5,.5Z" fill="#2f2e41" data-secondary="true"/>
      <path d="M297.33,181.61H95.51c-.28,0-.5-.22-.5-.5s.22-.5,.5-.5h201.82c.28,0,.5,.22,.5,.5s-.22,.5-.5,.5Z" fill="#2f2e41" data-secondary="true"/>
      <path d="M297.33,245.31H95.51c-.28,0-.5-.22-.5-.5s.22-.5,.5-.5h201.82c.28,0,.5,.22,.5,.5s-.22,.5-.5,.5Z" fill="#2f2e41" data-secondary="true"/>
      <path d="M297.33,309.02H95.51c-.28,0-.5-.22-.5-.5s.22-.5,.5-.5h201.82c.28,0,.5,.22,.5,.5s-.22,.5-.5,.5Z" fill="#2f2e41" data-secondary="true"/>
      <path d="M297.33,372.72H95.51c-.28,0-.5-.22-.5-.5s.22-.5,.5-.5h201.82c.28,0,.5,.22,.5,.5s-.22,.5-.5,.5Z" fill="#2f2e41" data-secondary="true"/>
      <path d="M297.33,436.42H95.51c-.28,0-.5-.22-.5-.5s.22-.5,.5-.5h201.82c.28,0,.5,.22,.5,.5s-.22,.5-.5,.5Z" fill="#2f2e41" data-secondary="true"/>
      <path d="M252.04,76.12c-.14,0-.27-.06-.37-.16-.19-.2-.17-.52,.03-.71l18.31-16.67c.2-.19,.52-.17,.71,.03,.19,.2,.17,.52-.03,.71l-18.31,16.67c-.1,.09-.22,.13-.34,.13Z" fill="#2f2e41" data-secondary="true"/>
      <path d="M141.28,76.12c-.12,0-.24-.04-.34-.13l-18.29-16.67c-.2-.19-.22-.5-.03-.71s.5-.22,.71-.03l18.29,16.67c.2,.19,.22,.5,.03,.71-.1,.11-.23,.16-.37,.16Z" fill="#2f2e41" data-secondary="true"/>
    </g>
  </g>
  <g id="e">
    <path d="M781.31,642.71h-156.01c-.28,0-.5-.22-.5-.5s.22-.5,.5-.5h156.01c.28,0,.5,.22,.5,.5s-.22,.5-.5,.5Z" fill="#2f2e41" data-secondary="true"/>
    <path d="M608.95,642.71H84.45c-.28,0-.5-.22-.5-.5s.22-.5,.5-.5H608.95c.28,0,.5,.22,.5,.5s-.22,.5-.5,.5Z" fill="#2f2e41" data-secondary="true"/>
  </g>
  <g>
    <g>
      <polygon points="358.41 585.32 378.5 594.04 377.29 598.52 372.69 602.27 358.41 585.32" fill="#2f2e41" data-secondary="true"/>
      <polygon points="481.99 591.01 495.54 582.42 495.78 586.9 482.11 599.85 481.99 591.01" fill="#2f2e41" data-secondary="true"/>
    </g>
    <g opacity=".2">
      <polygon points="358.41 585.32 378.5 594.04 377.29 598.52 372.69 602.27 358.41 585.32"/>
      <polygon points="481.99 591.01 495.54 582.42 495.78 586.9 482.11 599.85 481.99 591.01"/>
    </g>
    <path d="M386.97,570.32s-1.21-.48-1.33,2.18c0,0-1.69,7.63-7.38,15.01,0,0-3.87,5.08-4.24,11.62,0,0-7.87-6.29-10.65-10.05,0,0-7.99-8.96-16.7-12.1l-11.26-4.84s-11.26-5.08-18.28,5.08c0,0-6.96,8.26-4.81,16.39,.04,.15,.08,.3,.12,.45,.27,1.09,2.57,8.6,17.28,24.31,0,0,7.26,7.38,15.86,13.43,0,0,10.29,6.41,15.25,15.25,0,0,6.41,16.22,28.81,15.61l83.64-.85s16.94,.73,26.51-14.28c0,0,5.93-11.62,17.07-20.21,0,0,12.1-9.2,22.03-26.87,0,0,9.92-12.95,.12-25.18,0,0-7.14-12.83-21.67-6.17,0,0-1.94,1.57-8.47,3.03,0,0-9.68,3.03-14.89,11.62,0,0-7.26,10.41-10.77,13.19,0,0,1.45-8.47-3.87-13.92,0,0-1.09-1.69-2.42-3.75,0,0-.5-1.27-1.65-1.93-.7-.4-1.2-1.07-1.37-1.86-.21-1.01-.75-2.32-2.15-3.23-.46-.3-.83-.73-1.05-1.24-.36-.87-.85-2.26-.93-3.61,0,0,.12-1.09-.73-.97l-66.93-4.24-15.13,8.11Z" fill="#2f2e41" data-secondary="true"/>
    <g opacity=".4">
      <path d="M373.18,624.03s-.08,0-.12-.02c-.18-.07-.27-.27-.2-.44,1.52-3.98,.95-8.62,.95-8.67-.25-2.64,.23-5.33,.53-6.71,.18-.83,.2-1.68,.05-2.52-.61-3.45-.71-6.51-.71-6.54,0-.19,.14-.35,.33-.35,.22,0,.35,.14,.35,.33,0,.03,.1,3.05,.7,6.45,.16,.93,.14,1.87-.06,2.78-.3,1.33-.76,3.95-.52,6.48,.02,.18,.6,4.84-.99,8.99-.05,.14-.18,.22-.32,.22Z"/>
    </g>
    <g opacity=".4">
      <path d="M363.61,632.02s-.07,0-.1-.01c-.18-.05-.28-.25-.23-.43,3.86-12.79,10.39-17.56,10.67-17.76,.15-.11,.37-.07,.48,.08,.11,.15,.07,.37-.08,.48-.07,.05-6.62,4.85-10.41,17.4-.04,.15-.18,.24-.33,.24Z"/>
    </g>
    <g opacity=".4">
      <path d="M367.97,633.84c-.05,0-.11-.01-.16-.04-.17-.09-.23-.29-.15-.46,1.66-3.24,2.47-7.01,2.75-8.48,.2-1.09,.42-2.08,.68-3.03,1.33-4.9,2.74-6.54,2.8-6.61,.12-.14,.34-.16,.48-.03,.14,.12,.16,.34,.03,.48-.01,.02-1.38,1.62-2.66,6.34-.25,.93-.47,1.9-.67,2.97-.28,1.5-1.1,5.35-2.81,8.67-.06,.12-.18,.19-.3,.19Z"/>
    </g>
    <g opacity=".4">
      <path d="M366.88,613.02c-.08,0-.17-.03-.23-.09-.14-.13-.14-.35-.01-.48,4.29-4.54,7.9-4.54,8.04-4.52,.19,0,.34,.16,.33,.35s-.15,.36-.35,.34c-.09,.01-3.48,.02-7.53,4.3-.07,.07-.16,.11-.25,.11Z"/>
    </g>
    <g opacity=".4">
      <path d="M497.24,620.89c-.13,0-.26-.08-.31-.21-3.54-8.37-11.38-12.5-11.46-12.54-.1-.05-.17-.15-.18-.25-.7-4.78-2.44-6.82-2.46-6.84-.06-.06-.09-.15-.08-.24l.12-3.87c0-.19,.13-.32,.35-.33,.19,0,.34,.16,.33,.35l-.12,3.75c.38,.49,1.85,2.6,2.51,6.92,1.15,.64,8.27,4.85,11.62,12.79,.07,.17,0,.38-.18,.45-.04,.02-.09,.03-.13,.03Z"/>
    </g>
    <g opacity=".4">
      <path d="M491.79,606.6s-.08,0-.12-.02c-4.36-1.65-6.8-1.79-6.83-1.79-.19,0-.33-.17-.32-.36,0-.19,.17-.32,.36-.33,.1,0,2.56,.14,7.03,1.83,.18,.07,.27,.26,.2,.44-.05,.14-.18,.22-.32,.22Z"/>
    </g>
    <g opacity=".4">
      <path d="M493.48,624.4c-.15,0-.29-.1-.33-.26-1.34-5.35-3.4-9.53-4.51-11.78-.74-1.5-.86-1.73-.61-1.98,.13-.13,.35-.13,.48,0,.08,.08,.11,.19,.1,.3,.06,.19,.34,.77,.64,1.38,1.12,2.27,3.2,6.49,4.56,11.92,.05,.18-.07,.37-.25,.42-.03,0-.06,.01-.08,.01Z"/>
    </g>
    <g opacity=".4">
      <path d="M425.91,618.26c-1.34,0-2.11-.03-2.16-.03-38.17-1.8-48.49-10.49-48.91-10.86-.14-.12-.16-.34-.03-.48,.12-.14,.34-.16,.48-.03,.1,.09,10.63,8.91,48.49,10.69,.36,.02,36.52,1.41,59.66-16.19,.15-.11,.36-.08,.48,.07,.11,.15,.08,.36-.07,.48-20.05,15.25-49.75,16.36-57.95,16.36Z"/>
    </g>
    <path d="M403.07,409.82s6.29,11.26,3.15,23.72l-2.42,.73,13.8,27.6s11.38-.97,18.64-3.99l9.92-23.48-4.12-.97-2.54-3.51s.36-15.86,1.82-20.21l-38.25,.12Z" fill="#f9b499"/>
    <path d="M439.5,429.98s-.03,0-.05-.02c-1.81-2.05-3.11-11.38-3.16-11.77,0-.03,.02-.06,.05-.07,.04,0,.06,.02,.07,.05,.01,.1,1.35,9.69,3.13,11.71,.02,.02,.02,.06,0,.09-.01,.01-.03,.02-.04,.02Z" fill="#f7a48b"/>
    <path d="M442.04,433.49s0,0-.01,0c-.04,0-4.16-.99-7.16-2.91-.03-.02-.04-.06-.02-.08,.02-.03,.05-.04,.08-.02,2.98,1.91,7.08,2.89,7.12,2.9,.03,0,.05,.04,.05,.07,0,.03-.03,.05-.06,.05Z" fill="#f7a48b"/>
    <path d="M406.34,433.62c-.08,0-.12-.01-.13-.01-.03,0-.05-.04-.04-.07,0-.03,.04-.05,.07-.04,.02,0,1.44,.28,3.2-3.36,.02-.03,.05-.04,.08-.03,.03,.01,.04,.05,.03,.08-1.53,3.15-2.8,3.43-3.2,3.43Z" fill="#f7a48b"/>
    <path d="M421.11,288.55c-.12,4.48-3.27,5.08-3.27,5.08l-5.08,3.87c-6.05,5.45-20.82,21.06-20.82,21.06l-13.68,15.73c-6.29,9.21-12.52,18.7-15.2,22.82-1.01,1.54-1.46,3.38-1.32,5.22,.55,6.87,3.57,13.36,3.57,13.36,1.69,4.6,5.45,21.18,5.45,21.18,1.45,6.17,1.82,11.38,1.82,11.38,5.69,6.29,9.2,12.1,9.2,12.1,6.77,6.59,10.02,12.61,11.3,15.41,.43,.94,1.48,1.42,2.47,1.13l4.75-1.41,9.99,20.73c1.79,3.72,2.72,7.8,2.72,11.93v5.22c1.09,17.19-12.59,24.21-12.59,24.21l-9.32,5.45c-9.8,3.87-14.28,0-14.28,0l-4.24-19.24c-1.57-5.69-2.18-12.35-2.18-12.35-.61-7.87-4.84-13.68-4.84-13.68-2.42-3.39-4.12-10.41-4.12-10.41-2.54-9.32-7.02-18.52-7.02-18.52-2.9-6.41-7.87-18.64-7.87-18.64-3.39-8.96-6.17-29.17-6.17-29.17-2.18-11.74-1.45-17.79-1.45-17.79,.36-4.84-.48-7.87-.48-7.87-1.33-3.75,4.6-9.68,4.6-9.68,6.78-9.68,14.65-16.46,14.65-16.46,10.17-11.74,28.2-25.18,28.2-25.18,2.99-2.11,5.69-4.27,7.68-5.94,1.9-1.59,3.6-3.4,5.11-5.36,.87-1.13,1.66-2.02,2.35-2.71,2.18-2.19,3.91-4.78,5.04-7.65,3.65-9.23,6.36-21.06,7.65-27.34,.56-2.7,.9-5.44,1.03-8.2l.65-13.94c.01-.31,.27-.55,.57-.56,3.62-.08,2.96,4.77,2.96,4.77,1.45,0,1.69,1.82,1.69,1.82l.24,25.66c-2.66,1.45-1.09,9.8-1.09,9.8-.61,3.15,.61,7.99,.61,7.99,.61,2.42,.73,6.17,.73,6.17Z" fill="#f9b499"/>
    <path d="M477.99,501.08l-8.35,50.96-83.03,1.82-9.8-50.83s4.48,3.87,14.28,0l9.32-5.45s13.68-7.02,12.59-24.21v-5.42c0-4-.9-7.95-2.64-11.55l-10.07-20.91,3.51-1.21,13.8,27.6c12.71-1.21,18.64-3.99,18.64-3.99l9.92-23.48,3.87,.61,27.96,66.09Z" fill="#0071f2" data-primary="true"/>
    <path d="M386.61,553.85c.47,2.14,.87,4.76,.97,7.75,.11,3.39-.2,6.35-.61,8.71,7.3,3.33,21.13,8.47,39.09,8.11,20.63-.42,35.85-7.89,42.97-11.98-.1-2.27-.12-4.74,0-7.38,.11-2.51,.33-4.86,.61-7.02-27.68,.61-55.35,1.21-83.03,1.82Z" fill="#f9b499"/>
    <path d="M413.84,263.47s-.05,0-.08,0c-.18-.04-.3-.23-.26-.41,2.03-8.71,2.89-23.64,2.9-23.79,0-.96,.27-1.67,.81-2.1,.76-.61,1.74-.4,1.78-.39,.18,.04,.3,.22,.26,.41-.04,.18-.23,.3-.41,.26,0,0-.71-.15-1.21,.26-.37,.3-.55,.83-.55,1.59,0,.17-.87,15.16-2.91,23.92-.04,.16-.18,.26-.33,.26Z" fill="#f7a48b"/>
    <path d="M408.52,287.19c-.14,0-.27-.08-.32-.22-.07-.18,.02-.37,.2-.44,1.73-.65,2.07-2.11,2.09-2.17,.25-3.33,1.07-5.2,1.53-6.02,.2-.35,.32-.72,.36-1.11l.41-3.85c.19-4.01,.76-5.27,1.09-5.67v-2.33c0-.82,.43-1.57,1.14-1.99,.7-.41,1.54-.42,2.25-.03,1.59,.88,2.59,3.02,2.63,3.11,.08,.17,0,.37-.17,.45-.17,.08-.37,0-.45-.17,0-.02-.95-2.02-2.34-2.8-.49-.27-1.08-.27-1.57,.02-.5,.29-.8,.82-.8,1.4v2.47c0,.12-.07,.24-.17,.3,0,0-.7,.69-.92,5.29l-.41,3.87c-.05,.48-.2,.94-.44,1.37-.43,.77-1.2,2.54-1.45,5.78-.02,.12-.43,1.93-2.52,2.71-.04,.01-.08,.02-.12,.02Z" fill="#f7a48b"/>
    <path d="M450.03,435s3.27,.61,6.05,1.09c0,0,.27-2.58,2.38-7.5,1.97-4.57,4.56-8.84,7.66-12.72l6.34-7.93c.7-.88,1.15-1.93,1.3-3.04,.12-.92,.25-2.26,.34-4.16,0,0,.97-19.73,7.63-32.07,0,0,1.69-8.47,1.33-12.35,0,0-14.16-19-19.49-24.81,0,0-16.58-17.67-24.57-24.45l-13.56-11.62s-4.37-2.04-4.73-4.71c0,0,.67-.8,.16-5.19l.22-8.86s-.12-1.82-1.33-2.3c0,0-1.57-8.47,1.09-9.8l-.23-25.41s-.13-2.07-1.7-2.07l.1-1.51s.27-4.3,3.66-3.21c.12,0,.12,4.24,.12,4.24,0,0,1.09-.61,1.21,1.69,0,0,.76,7.68,2.68,12.2,.24,.56,.38,1.16,.43,1.76l.47,5.77c.04,.45,.17,.89,.38,1.28,.74,1.37,2.52,5.21,3.19,11.3,0,0,1.45,12.35,7.14,18.4,0,0,6.17,7.26,20.33,14.89,0,0,19.61,12.35,28.93,22.51,0,0,11.86,8.71,15.25,14.52,0,0,6.41,5.57,4.48,11.5,0,0,1.21,29.05-4.72,51.8,0,0-3.27,12.35-9.2,26.63l-6.29,19s-2.54,4.72-3.03,12.71c0,0-1.21,20.7-6.05,38.49,0,0-3.99,5.57-19.97-1.09,0,0-15.61-5.93-17.91-22.27,0,0-.04-.34-.09-.93-.95-9.71,.56-19.5,4.37-28.49l5.65-13.31Z" fill="#f9b499"/>
    <g>
      <path d="M428.38,344.13s-23.14-9.39-34.54,11.07c0,0-27,36.05,.84,59.19,0,0,.34,7.04,7.71,9.39,0,0,6.71,2.68,8.72,5.03,0,0-.67,2.35,1.34,3.69l3.02,2.35s1.01,8.38-6.04,16.1c0,0-20.79,17.44-8.05,37.89,0,0,3.35,6.37,11.07,9.39,0,0-.67,6.04,6.71,10.06,0,0,9.39,6.04,4.69,18.11,0,0,3.02-1.68,4.36-5.37,0,0-.85,4.79,5.47,8.43,2.05,1.18,3.87,2.74,5.24,4.67,1.37,1.93,2.77,4.54,3.37,7.69,0,0,2.35-2.68,2.01-7.04,0,0,1.34,2.68,1.01,6.37,0,0,3.02-2.01,2.68-7.38,0,0,3.69-3.69-.34-11.07,0,0-1.34-4.02-.34-10.4,0,0,3.02,4.69,9.73,4.69,0,0-3.69-2.68-4.36-10.4v-8.72s1.34-6.37-1.01-11.4c0,0,1.68-3.69,.67-6.37,0,0,12.07-14.42,2.01-30.52,0,0-6.71-7.71-12.07-11.74,0,0-4.69-3.35-5.7-6.71,0,0,.67-1.68,1.01-4.02,0,0,7.71-3.02,10.06-12.07,0,0,8.05-2.68,9.39-8.72,0,0,8.05-6.04,3.02-26.16,0,0-7.04-38.23-31.69-36.05Z" fill="#2f2e41" data-secondary="true"/>
      <g opacity=".4">
        <path d="M395.69,362.75s-.1-.01-.14-.03c-.17-.08-.25-.28-.17-.45,7.04-15.08,25.23-17.94,25.41-17.97,.19-.03,.36,.1,.39,.29s-.1,.36-.29,.39c-.18,.03-18.01,2.83-24.89,17.58-.06,.12-.18,.2-.31,.2Z"/>
      </g>
      <g opacity=".4">
        <path d="M398.7,380.19s-.06,0-.08-.01c-.18-.05-.29-.23-.25-.42,.07-.3,7.65-29.76,26.41-34.45,.18-.05,.37,.07,.42,.25,.05,.18-.07,.37-.25,.42-18.36,4.59-25.83,33.66-25.91,33.96-.04,.16-.18,.26-.33,.26Z"/>
      </g>
      <g opacity=".4">
        <path d="M417.15,393.6c-.18,0-.34-.15-.34-.33-1-28.09,10.39-44.82,11.26-45.25,.17-.08,.38-.02,.46,.15,.08,.16,.02,.36-.13,.45-1.21,.98-11.86,17.7-10.9,44.63,0,.19-.14,.35-.33,.35,0,0,0,0-.01,0Z"/>
      </g>
      <g opacity=".4">
        <path d="M434.92,381.53s-.02,0-.02,0c-.19-.01-.33-.18-.32-.37,1.32-18.45-5.91-29.86-5.98-29.97-.1-.16-.06-.37,.1-.47,.16-.1,.37-.06,.47,.1,.07,.12,7.42,11.71,6.09,30.39-.01,.18-.16,.32-.34,.32Z"/>
      </g>
      <g opacity=".4">
        <path d="M444.65,376.5c-.17,0-.32-.13-.34-.31-1.97-19.07-14.14-27.17-14.27-27.25-.16-.1-.2-.31-.1-.47s.31-.2,.47-.1c.13,.08,12.57,8.36,14.57,27.75,.02,.19-.12,.36-.31,.38-.01,0-.02,0-.04,0Z"/>
      </g>
      <g opacity=".4">
        <path d="M448.34,364.76c-.15,0-.29-.1-.33-.26-3.59-14.69-16.04-17.49-16.17-17.52-.18-.04-.3-.22-.26-.41,.04-.18,.22-.3,.4-.26,.13,.03,13,2.9,16.69,18.03,.04,.18-.07,.37-.25,.41-.03,0-.05,0-.08,0Z"/>
      </g>
      <g opacity=".4">
        <path d="M421.71,411.1c-16.88,0-22.33-4.96-22.57-5.18-14.75-9.72-7.21-33.98-7.13-34.22,.06-.18,.25-.28,.43-.22,.18,.06,.28,.25,.22,.43-.08,.24-7.46,24.01,6.91,33.48,.11,.09,6.26,5.63,25.29,4.97,.18,0,.35,.14,.35,.33s-.14,.35-.33,.35c-1.1,.04-2.15,.06-3.16,.06Z"/>
      </g>
      <g opacity=".4">
        <path d="M428.55,412.38c-.15,0-.29-.1-.33-.26-.5-2-5.27-2.67-7.06-2.76-14.7,0-21.4-5.87-21.67-6.12-.14-.13-.15-.34-.03-.48s.34-.15,.48-.03c.07,.06,6.8,5.95,21.23,5.95,.3,.01,6.99,.38,7.71,3.28,.05,.18-.07,.37-.25,.42-.03,0-.06,.01-.08,.01Z"/>
      </g>
      <g opacity=".4">
        <path d="M428,411.64c-.05,0-.11-.01-.16-.04-.17-.09-.23-.29-.15-.46,2.11-4.12,6-6.7,8.9-8.14,3.51-1.75,6.56-3.97,9.06-6.61,7.31-7.69,9.34-16.61,6.04-26.5-.06-.18,.04-.37,.22-.43,.18-.06,.37,.04,.43,.22,3.38,10.15,1.3,19.3-6.2,27.19-2.56,2.7-5.67,4.97-9.25,6.75-2.8,1.4-6.57,3.89-8.59,7.84-.06,.12-.18,.19-.3,.19Z"/>
      </g>
      <g opacity=".4">
        <path d="M410.6,414.74c-6.01,0-10.99-1.3-14.87-3.91-5.97-4-7.04-9.56-7.08-9.79-.03-.19,.09-.36,.27-.4,.19-.03,.36,.09,.4,.27,.01,.05,1.07,5.53,6.8,9.36,6.01,4.02,14.75,4.84,25.99,2.44,.18-.04,.37,.08,.41,.26,.04,.18-.08,.37-.26,.41-4.23,.9-8.12,1.35-11.65,1.35Z"/>
      </g>
      <g opacity=".4">
        <path d="M415.81,418.08c-.1,0-.21-.05-.28-.14-.11-.15-.08-.37,.07-.48,.06-.04,5.84-4.25,14.37-5.84,2.3-.43,4.32-1.02,6.18-1.8,4.33-1.83,10.19-5.34,13.56-11.69,.09-.17,.29-.23,.46-.14,.17,.09,.23,.3,.14,.46-3.47,6.53-9.47,10.13-13.9,12-1.9,.8-3.97,1.41-6.32,1.85-8.36,1.56-14.03,5.68-14.09,5.72-.06,.04-.13,.07-.2,.07Z"/>
      </g>
      <g opacity=".4">
        <path d="M411.11,429.15s-.07,0-.11-.02c-.18-.06-.28-.25-.22-.43,.07-.21,1.82-5.24,8.98-6.6,.03-.01,7.26-2.34,9.52-5.24,.12-.15,.33-.17,.48-.06,.15,.12,.18,.33,.06,.48-2.39,3.07-9.59,5.38-9.89,5.48-6.79,1.29-8.48,6.11-8.5,6.15-.05,.14-.18,.23-.32,.23Z"/>
      </g>
      <g opacity=".4">
        <path d="M416.48,420.43c-.09,0-.18-.03-.25-.1-.13-.13-.13-.34,0-.48,.08-.08,2.05-1.93,14.09-3.26,1-.11,2.01-.19,3-.23,2.29-.09,7.2-.42,14.27-1.64,.18-.03,.36,.09,.4,.28,.03,.19-.09,.36-.28,.4-7.11,1.23-12.05,1.56-14.36,1.65-.98,.04-1.97,.11-2.96,.22-11.63,1.29-13.67,3.05-13.69,3.07-.07,.06-.15,.09-.23,.09Z"/>
      </g>
      <g opacity=".4">
        <path d="M415.47,435.19s-.02,0-.04,0c-.19-.02-.32-.19-.3-.37,.01-.15,.44-3.62,6.98-5,.15-.03,14.8-2.95,15.47-13.36,.01-.19,.18-.34,.36-.32,.19,.01,.33,.17,.32,.36-.7,10.94-15.86,13.96-16.01,13.99-6,1.26-6.43,4.36-6.43,4.4-.02,.17-.17,.3-.34,.3Z"/>
      </g>
      <g opacity=".4">
        <path d="M434.59,416.74c-.16,0-.31-.12-.34-.28-.03-.19,.09-.36,.28-.4,15.12-2.63,22.21-9.89,22.28-9.96,.13-.14,.35-.14,.48-.01,.14,.13,.14,.35,.01,.48-.07,.07-7.3,7.49-22.66,10.16-.02,0-.04,0-.06,0Z"/>
      </g>
      <g opacity=".4">
        <path d="M432.84,427.92c-2.43,0-3.38-.45-3.43-.48-.17-.08-.24-.29-.15-.46,.08-.17,.29-.24,.46-.15h0s2.04,.94,7.84-.03c.19-.03,.36,.09,.39,.28,.03,.19-.09,.36-.28,.39-2.03,.34-3.61,.45-4.82,.45Z"/>
      </g>
      <g opacity=".4">
        <path d="M415.5,436.22c-.08,0-.15-.03-.22-.08-.15-.12-.17-.34-.04-.48,2.35-2.83,6.61-2.51,8.94-2.07,1.07,.2,2.1,.31,3.06,.32,8.3,.11,9.02-2.79,9.03-2.82,.04-.18,.22-.3,.4-.27,.18,.04,.3,.21,.27,.39-.03,.14-.73,3.5-9.71,3.38-1-.01-2.07-.12-3.18-.33-1.76-.33-6.09-.82-8.29,1.83-.07,.08-.17,.12-.26,.12Z"/>
      </g>
      <g opacity=".4">
        <path d="M430.56,492.53s-.03,0-.05,0c-7.57-1.11-12.61-4.12-14.98-8.96-4.7-9.61,2.68-22.85,2.99-23.4,8.15-16.96-.18-24.99-.27-25.07-.14-.13-.15-.34-.02-.48,.13-.14,.34-.15,.48-.02,.09,.08,8.81,8.42,.41,25.89-.09,.15-7.53,13.5-2.98,22.79,2.26,4.62,7.13,7.51,14.46,8.58,.19,.03,.32,.2,.29,.39-.02,.17-.17,.29-.34,.29Z"/>
      </g>
      <g opacity=".4">
        <path d="M428.55,490.52c-.06,0-.12-.02-.18-.05-5.58-3.39-5.98-8.16-5.34-11.57,.34-1.8,1.09-3.59,2.22-5.33,5.97-9.13,3-18.07,2.97-18.16-.06-.18,.03-.37,.21-.43,.18-.06,.37,.03,.43,.21,.03,.09,3.11,9.34-3.04,18.76-1.09,1.66-1.8,3.37-2.12,5.08-.6,3.2-.22,7.67,5.02,10.86,.16,.1,.21,.31,.11,.47-.06,.11-.18,.16-.29,.16Z"/>
      </g>
      <g opacity=".4">
        <path d="M438.61,492.2s-.04,0-.07,0c-.17-.03-.28-.18-.27-.35,.34-6.45,6.24-11.44,6.49-11.65,11.41-8.8,4.66-27.6,4.59-27.79-.07-.18,.03-.37,.2-.44,.18-.07,.37,.03,.44,.2,.07,.19,6.99,19.46-4.81,28.56-.04,.04-4.62,3.91-5.92,9.05,.91-1.47,2.5-3.32,4.91-3.94,6.46-2.9,7.85-5.83,7.86-5.86,.08-.17,.28-.25,.45-.17,.17,.08,.25,.28,.17,.45-.06,.13-1.47,3.17-8.22,6.21-.02,.01-.08,.03-.11,.03-3.76,.97-5.4,5.43-5.41,5.47-.05,.14-.18,.23-.32,.23Z"/>
      </g>
      <g opacity=".4">
        <path d="M448.67,510.64s-.06,0-.08-.01c-2.82-.71-4.88-2.44-6.13-5.15-2.22-4.83-1.09-11.19-.8-11.77,.08-.17,.29-.24,.46-.15,.17,.08,.24,.29,.15,.46-.17,.39-1.38,6.7,.92,11.4,.95,1.95,2.38,3.33,4.25,4.11-1.59-1.88-4.19-6.26-1.43-12.78l5.38-10.42c.09-.17,.29-.23,.46-.15,.17,.09,.23,.29,.15,.46l-5.37,10.4c-3.53,8.34,2.02,12.8,2.25,12.99,.13,.1,.17,.27,.1,.42-.06,.12-.18,.19-.31,.19Z"/>
      </g>
      <g opacity=".4">
        <path d="M418.46,499.4c-1.77,0-3.8-.24-6.09-.85-.18-.05-.29-.24-.24-.42s.24-.29,.42-.24c7.44,1.98,12.1-.16,13.91-1.31-.12,0-.23,0-.35,0-13.41,0-19.24-8.82-19.3-8.91-.1-.16-.06-.37,.1-.47,.16-.1,.37-.06,.47,.1,.06,.09,6.11,9.23,20.15,8.56,.14,0,.28,.08,.33,.21,.06,.13,.02,.29-.08,.38-.16,.15-3.24,2.94-9.32,2.94Z"/>
      </g>
      <g opacity=".4">
        <path d="M437.27,513.66s-.08,0-.12-.02c-.14-.05-.23-.19-.22-.33,.32-7.96-6.46-9-6.75-9.04-7.54-1.02-12.42-2.68-14.5-4.92-.04-.05-.07-.08-.1-.1-.14-.12-.17-.33-.06-.48s.32-.18,.46-.07c.04,.03,.11,.09,.19,.19,2.45,2.65,9.02,4.02,14.1,4.71,.07,0,6.95,1.04,7.33,8.52,.62-1.25,1.33-3.54,.14-6.15-.49-1.08-1.31-2.06-2.36-2.85l-4.36-3.27c-.15-.11-.18-.33-.07-.48,.11-.15,.33-.18,.48-.07l4.36,3.27c1.14,.85,2.03,1.93,2.57,3.11,1.94,4.25-.72,7.71-.83,7.85-.07,.08-.17,.13-.27,.13Z"/>
      </g>
      <g opacity=".4">
        <path d="M428.14,522.16s-.04,0-.05,0c-.19-.03-.31-.2-.28-.39,1.9-12.04-1.53-18.62-1.57-18.68-.09-.17-.03-.37,.14-.46,.17-.09,.37-.03,.46,.14,.15,.27,3.58,6.85,1.64,19.11-.03,.17-.17,.29-.34,.29Z"/>
      </g>
      <g opacity=".4">
        <path d="M444.31,535.12c-.15,0-.28-.1-.33-.24-.97-3.25-4.26-7.22-4.29-7.26-4.11-4.45-2.8-8.23-2.74-8.38,.06-.18,.26-.27,.44-.2,.18,.06,.27,.26,.21,.44-.05,.14-1.21,3.56,2.61,7.7,.15,.18,3.42,4.13,4.44,7.51,.05,.18-.05,.37-.23,.43-.03,0-.07,.01-.1,.01Z"/>
      </g>
      <g opacity=".4">
        <path d="M448,534.12c-.19,0-.34-.15-.34-.34,0-.03-.03-3.29-2.29-6.51-.02-.02-.03-.05-.04-.08-.08-.22-2.04-5.48-1.7-8.21,.02-.19,.19-.32,.38-.3,.19,.02,.32,.19,.3,.38-.31,2.45,1.46,7.35,1.64,7.85,2.36,3.39,2.38,6.73,2.38,6.87,0,.19-.15,.34-.34,.34h0Z"/>
      </g>
    </g>
    <path d="M426.79,275.94c-.12,0-.24-.06-.3-.17-.91-1.63-1.64-7.99-1.91-10.65-.06-.63-.38-1.19-.88-1.52-1.69-1.15-3.65,1.41-3.67,1.44-.11,.15-.33,.18-.48,.07-.15-.11-.18-.33-.07-.48,.81-1.08,2.81-2.8,4.6-1.59,.66,.45,1.09,1.18,1.17,2.02,.21,2.04,.95,8.83,1.82,10.38,.09,.16,.03,.37-.13,.47-.05,.03-.11,.04-.17,.04Z" fill="#f7a48b"/>
    <path d="M432.97,286.59c-.05,0-.1-.01-.15-.04-2.81-1.4-3.08-5.21-3.09-5.37-.69-5.41-3.7-7.25-3.73-7.27-.16-.1-.22-.31-.12-.47,.1-.16,.3-.22,.47-.12,.14,.08,3.33,2.01,4.07,7.8,0,.06,.27,3.59,2.72,4.82,.17,.08,.24,.29,.15,.46-.06,.12-.18,.19-.31,.19Z" fill="#f7a48b"/>
    <path d="M419.29,243.38c-.19,0-.34-.15-.34-.34-.05-2.96,.54-5,1.76-6.05,1.02-.88,2.1-.71,2.14-.71,.19,.03,.31,.21,.28,.39-.03,.19-.2,.31-.39,.28-.04,0-.83-.12-1.6,.56-.72,.63-1.57,2.1-1.51,5.51,0,.19-.15,.34-.34,.35,0,0,0,0,0,0Z" fill="#f7a48b"/>
    <path d="M419.77,274.73c-.19,0-.34-.15-.34-.34l-.65-38.1c0-.19,.15-.34,.34-.35,0,0,0,0,0,0,.19,0,.34,.15,.34,.34l.65,38.1c0,.19-.15,.34-.34,.35,0,0,0,0,0,0Z" fill="#f7a48b"/>
  </g>
  <g>
    <g>
      <path d="M703.79,558.61s18.78-15.79,40.09-.42c0,0,13.38,10.41,4.46,19.33,0,0-9.42,6.44-23.3-4.46,0,0-14.75-12.04-21.25-14.45Z" fill="#0071f2" data-primary="true"/>
      <path d="M740.8,579.87c-4.13,0-9.65-1.38-16.07-6.42-.15-.13-14.77-12.02-21.12-14.37l-.81-.3,.66-.55c.19-.16,19.32-15.86,40.7-.45,.31,.24,7.31,5.75,7.72,12.36,.18,2.84-.9,5.44-3.19,7.73-.09,.07-3.01,2-7.89,2Zm-36.02-21.39c6.81,2.99,19.99,13.72,20.57,14.19,13.39,10.52,22.61,4.5,22.7,4.44,2.01-2.02,2.99-4.37,2.83-6.9-.38-6.15-7.25-11.57-7.32-11.62-18.5-13.33-35.26-2.67-38.78-.1Z" fill="#2f2e41" data-secondary="true"/>
    </g>
    <g>
      <path d="M683.03,550.9s20.7-28.89,8.3-57.14c0,0-13.88-27.76,2.48-36.18,0,0,20.32-8.43,31.23,21.31,0,0,14.62,43.41-42.01,72.02Z" fill="#0071f2" data-primary="true"/>
      <path d="M681.44,552.26l1.18-1.66c.21-.29,20.38-28.99,8.25-56.65-.13-.26-13.9-28.28,2.71-36.83,.33-.14,7.2-2.91,15.2,.6,7.14,3.13,12.77,10.19,16.73,20.99,.04,.12,3.67,11.17,.25,25.57-3.15,13.27-13.08,32.2-42.5,47.07l-1.82,.92Zm18.96-95.29c-3.77,0-6.35,1.04-6.39,1.05-15.69,8.09-2.36,35.23-2.22,35.5,10.71,24.43-3.23,49.56-7.29,56.06,27.75-14.54,37.24-32.7,40.28-45.48,3.37-14.13-.17-24.95-.21-25.06-3.85-10.51-9.29-17.37-16.17-20.4-2.9-1.28-5.68-1.67-8-1.67Z" fill="#2f2e41" data-secondary="true"/>
    </g>
    <g>
      <path d="M630.42,467.63c-5.14,2.53-8.51,7.75-8.43,13.47,.1,7.16,4.49,17.01,25.23,22.56,0,0,24.32,6.03,27.03,24.08,0,0,6.71-22.37-4.73-43.74-4.38-8.18-11.68-14.51-20.56-17.21-5.58-1.69-12.24-2.27-18.53,.83Z" fill="#0071f2" data-primary="true"/>
      <path d="M674.09,530.03l-.33-2.21c-2.63-17.51-26.42-23.61-26.66-23.67-20.97-5.61-25.5-15.63-25.61-23.04-.08-5.81,3.33-11.28,8.71-13.93h0c5.5-2.71,11.86-3,18.9-.86,8.86,2.69,16.27,8.89,20.86,17.45,11.41,21.3,4.84,43.89,4.77,44.12l-.64,2.14Zm-43.45-61.95c-5.03,2.48-8.23,7.59-8.15,13.02,.1,7.07,4.5,16.64,24.86,22.08,.23,.06,22.67,5.8,26.94,22.27,1.3-6.08,3.96-24.07-5.22-41.21-4.46-8.33-11.66-14.36-20.27-16.97-6.79-2.06-12.91-1.79-18.17,.8h0Z" fill="#2f2e41" data-secondary="true"/>
    </g>
    <g>
      <path d="M629.26,541.95c1.25,2.38,3.56,5.03,7.54,7.81,0,0,15.65,9.08,19.72,21.89,0,0-.39-20.9-12.29-36.76,0,0-1.03-1.95-3.15-3.48-7.01-5.05-15.84,2.89-11.83,10.54Z" fill="#0071f2" data-primary="true"/>
      <path d="M657.1,575.08l-1.04-3.28c-3.96-12.48-19.34-21.52-19.5-21.61-3.71-2.6-6.3-5.29-7.74-8.01h0c-2.24-4.27-.62-8.46,1.99-10.72,3.09-2.68,7.24-2.86,10.57-.45,2.19,1.58,3.26,3.57,3.3,3.65,11.81,15.74,12.34,36.77,12.35,36.98l.06,3.44Zm-27.39-33.36c1.36,2.59,3.84,5.16,7.39,7.64,.56,.32,13.45,7.9,18.71,19.09-.64-6.45-3.05-21.36-11.96-33.25-.05-.08-1.05-1.94-3.05-3.37-3.58-2.58-7.27-1.4-9.33,.4-2.14,1.86-3.88,5.46-1.76,9.5h0Z" fill="#2f2e41" data-secondary="true"/>
    </g>
    <g>
      <polygon points="648.21 590.41 650.85 642.21 694.8 642.21 697.78 590.9 648.21 590.41" fill="#fff"/>
      <path d="M694.8,642.71h-43.96c-.27,0-.49-.21-.5-.47l-2.63-51.8c0-.14,.04-.27,.14-.37,.1-.1,.25-.15,.37-.15l49.57,.49c.14,0,.27,.06,.36,.16s.14,.23,.13,.37l-2.97,51.31c-.02,.26-.23,.47-.5,.47Zm-43.48-1h43.01l2.92-50.31-48.51-.48,2.58,50.79Z" fill="#2f2e41" data-secondary="true"/>
    </g>
    <path d="M682.42,591.66s-.03,0-.04,0c-.28-.02-.48-.26-.46-.54,.02-.21,1.72-20.65,15.78-30.18,8.33-5.64,19.25-6.39,32.45-2.24,.26,.08,.41,.36,.33,.63-.08,.26-.36,.41-.63,.33-12.9-4.06-23.53-3.35-31.59,2.11-13.66,9.25-15.33,29.23-15.35,29.43-.02,.26-.24,.46-.5,.46Z" fill="#2f2e41" data-secondary="true"/>
    <path d="M674.78,591.31c-.22,0-.42-.14-.48-.37-7.79-27.85,11.07-43.99,14.93-46.94,1.15-.88,2.51-1.93,3.8-3.05,34.27-29.49,14.44-62.48,14.23-62.81-.15-.23-.07-.54,.16-.69,.23-.15,.54-.07,.69,.16,.21,.34,20.48,34.04-14.43,64.09-1.32,1.13-2.68,2.2-3.85,3.09-3.77,2.88-22.19,18.65-14.58,45.88,.07,.27-.08,.54-.35,.62-.04,.01-.09,.02-.14,.02Z" fill="#2f2e41" data-secondary="true"/>
    <path d="M671.32,591.05c-.17,0-.33-.08-.43-.24-14.05-22.64,.51-52.37,.66-52.67,11.12-32.4-16.41-52.21-16.69-52.41-.23-.16-.28-.47-.12-.7,.16-.23,.47-.28,.7-.12,.29,.2,28.43,20.43,17.04,53.61-.17,.35-14.48,29.6-.73,51.76,.15,.23,.07,.54-.16,.69-.08,.05-.17,.08-.26,.08Z" fill="#2f2e41" data-secondary="true"/>
    <path d="M658.47,591.37s-.01,0-.02,0c-.28-.01-.49-.24-.48-.52,1.31-32.59-17.78-45.5-17.97-45.62-.23-.15-.29-.46-.14-.69,.15-.23,.46-.3,.69-.14,.2,.13,19.76,13.35,18.42,46.5-.01,.27-.23,.48-.5,.48Z" fill="#2f2e41" data-secondary="true"/>
  </g>
  <g>
    <g>
      <path d="M201.79,558.61s18.78-15.79,40.09-.42c0,0,13.38,10.41,4.46,19.33,0,0-9.42,6.44-23.3-4.46,0,0-14.75-12.04-21.25-14.45Z" fill="#0071f2" data-primary="true"/>
      <path d="M238.8,579.87c-4.13,0-9.65-1.38-16.07-6.42-.15-.13-14.77-12.02-21.12-14.37l-.81-.3,.66-.55c.19-.16,19.32-15.86,40.7-.45,.31,.24,7.31,5.75,7.72,12.36,.18,2.84-.9,5.44-3.19,7.73-.09,.07-3.01,2-7.89,2Zm-36.02-21.39c6.81,2.99,19.99,13.72,20.57,14.19,13.39,10.52,22.61,4.5,22.7,4.44,2.01-2.02,2.99-4.37,2.83-6.9-.38-6.15-7.25-11.57-7.32-11.62-18.5-13.33-35.26-2.67-38.78-.1Z" fill="#2f2e41" data-secondary="true"/>
    </g>
    <g>
      <path d="M181.03,550.9s20.7-28.89,8.3-57.14c0,0-13.88-27.76,2.48-36.18,0,0,20.32-8.43,31.23,21.31,0,0,14.62,43.41-42.01,72.02Z" fill="#0071f2" data-primary="true"/>
      <path d="M179.44,552.26l1.18-1.66c.21-.29,20.38-28.99,8.25-56.65-.13-.26-13.9-28.28,2.71-36.83,.33-.14,7.2-2.91,15.2,.6,7.14,3.13,12.77,10.19,16.73,20.99,.04,.12,3.67,11.17,.25,25.57-3.15,13.27-13.08,32.2-42.5,47.07l-1.82,.92Zm18.96-95.29c-3.77,0-6.35,1.04-6.39,1.05-15.69,8.09-2.36,35.23-2.22,35.5,10.71,24.43-3.23,49.56-7.29,56.06,27.75-14.54,37.24-32.7,40.28-45.48,3.37-14.13-.17-24.95-.21-25.06-3.85-10.51-9.29-17.37-16.17-20.4-2.9-1.28-5.68-1.67-8-1.67Z" fill="#2f2e41" data-secondary="true"/>
    </g>
    <g>
      <path d="M128.42,467.63c-5.14,2.53-8.51,7.75-8.43,13.47,.1,7.16,4.49,17.01,25.23,22.56,0,0,24.32,6.03,27.03,24.08,0,0,6.71-22.37-4.73-43.74-4.38-8.18-11.68-14.51-20.56-17.21-5.58-1.69-12.24-2.27-18.53,.83Z" fill="#0071f2" data-primary="true"/>
      <path d="M172.09,530.03l-.33-2.21c-2.63-17.51-26.42-23.61-26.66-23.67-20.97-5.61-25.5-15.63-25.61-23.04-.08-5.81,3.33-11.28,8.71-13.93h0c5.5-2.71,11.86-3,18.9-.86,8.86,2.69,16.27,8.89,20.86,17.45,11.41,21.3,4.84,43.89,4.77,44.12l-.64,2.14Zm-43.45-61.95c-5.03,2.48-8.23,7.59-8.15,13.02,.1,7.07,4.5,16.64,24.86,22.08,.23,.06,22.67,5.8,26.94,22.27,1.3-6.08,3.96-24.07-5.22-41.21-4.46-8.33-11.66-14.36-20.27-16.97-6.79-2.06-12.91-1.79-18.17,.8h0Z" fill="#2f2e41" data-secondary="true"/>
    </g>
    <g>
      <path d="M127.26,541.95c1.25,2.38,3.56,5.03,7.54,7.81,0,0,15.65,9.08,19.72,21.89,0,0-.39-20.9-12.29-36.76,0,0-1.03-1.95-3.15-3.48-7.01-5.05-15.84,2.89-11.83,10.54Z" fill="#0071f2" data-primary="true"/>
      <path d="M155.1,575.08l-1.04-3.28c-3.96-12.48-19.34-21.52-19.5-21.61-3.71-2.6-6.3-5.29-7.74-8.01h0c-2.24-4.27-.62-8.46,1.99-10.72,3.09-2.68,7.24-2.86,10.57-.45,2.19,1.58,3.26,3.57,3.3,3.65,11.81,15.74,12.34,36.77,12.35,36.98l.06,3.44Zm-27.39-33.36c1.36,2.59,3.84,5.16,7.39,7.64,.56,.32,13.45,7.9,18.71,19.09-.64-6.45-3.05-21.36-11.96-33.25-.05-.08-1.05-1.94-3.05-3.37-3.58-2.58-7.27-1.4-9.33,.4-2.14,1.86-3.88,5.46-1.76,9.5h0Z" fill="#2f2e41" data-secondary="true"/>
    </g>
    <g>
      <polygon points="146.21 590.41 148.85 642.21 192.8 642.21 195.78 590.9 146.21 590.41" fill="#fff"/>
      <path d="M192.8,642.71h-43.96c-.27,0-.49-.21-.5-.47l-2.63-51.8c0-.14,.04-.27,.14-.37,.1-.1,.22-.15,.37-.15l49.57,.49c.14,0,.27,.06,.36,.16s.14,.23,.13,.37l-2.97,51.31c-.02,.26-.23,.47-.5,.47Zm-43.48-1h43.01l2.92-50.31-48.51-.48,2.58,50.79Z" fill="#2f2e41" data-secondary="true"/>
    </g>
    <path d="M180.42,591.66s-.03,0-.04,0c-.28-.02-.48-.26-.46-.54,.02-.21,1.72-20.65,15.78-30.18,8.33-5.64,19.25-6.39,32.45-2.24,.26,.08,.41,.36,.33,.63-.08,.26-.36,.41-.63,.33-12.9-4.06-23.53-3.35-31.59,2.11-13.66,9.25-15.33,29.23-15.35,29.43-.02,.26-.24,.46-.5,.46Z" fill="#2f2e41" data-secondary="true"/>
    <path d="M172.78,591.31c-.22,0-.42-.14-.48-.37-7.79-27.85,11.07-43.99,14.93-46.94,1.15-.88,2.51-1.93,3.8-3.05,34.27-29.49,14.44-62.48,14.23-62.81-.15-.23-.07-.54,.16-.69,.23-.15,.54-.07,.69,.16,.21,.34,20.48,34.04-14.43,64.09-1.32,1.13-2.68,2.2-3.85,3.09-3.77,2.88-22.19,18.65-14.58,45.88,.07,.27-.08,.54-.35,.62-.04,.01-.09,.02-.14,.02Z" fill="#2f2e41" data-secondary="true"/>
    <path d="M169.32,591.05c-.17,0-.33-.08-.43-.24-14.05-22.64,.51-52.37,.66-52.67,11.12-32.4-16.41-52.21-16.69-52.41-.23-.16-.28-.47-.12-.7,.16-.23,.47-.28,.7-.12,.29,.2,28.43,20.43,17.04,53.61-.17,.35-14.48,29.6-.73,51.76,.15,.23,.07,.54-.16,.69-.08,.05-.17,.08-.26,.08Z" fill="#2f2e41" data-secondary="true"/>
    <path d="M156.47,591.37s-.01,0-.02,0c-.28-.01-.49-.24-.48-.52,1.31-32.59-17.78-45.5-17.97-45.62-.23-.15-.29-.46-.14-.69,.15-.23,.46-.3,.69-.14,.2,.13,19.76,13.35,18.42,46.5-.01,.27-.23,.48-.5,.48Z" fill="#2f2e41" data-secondary="true"/>
  </g>
</svg>